HIERARCHY
ROOT Hips
{
 OFFSET 0.000000 0.000000 0.000000
 CHANNELS 6 Xposition Yposition Zposition Yrotation Xrotation Zrotation
 JOINT Chest
 {
  OFFSET 0.000000 9.588913 -0.003946
  CHANNELS 3 Yrotation Xrotation Zrotation
  JOINT Chest2
  {
   OFFSET 0.000000 9.541882 0.008053
   CHANNELS 3 Yrotation Xrotation Zrotation
   JOINT Chest3
   {
    OFFSET 0.000000 9.501360 0.000000
    CHANNELS 3 Yrotation Xrotation Zrotation
    JOINT Chest4
    {
     OFFSET 0.000000 9.491660 0.000000
     CHANNELS 3 Yrotation Xrotation Zrotation
     JOINT Neck
     {
      OFFSET 0.000000 14.331917 0.000000
      CHANNELS 3 Yrotation Xrotation Zrotation
      JOINT Head
      {
       OFFSET 0.000000 8.884799 0.017034
       CHANNELS 3 Yrotation Xrotation Zrotation
       End Site
       {
        OFFSET 0.000000 16.896195 0.008993
       }
      }
     }
     JOINT RightCollar
     {
      OFFSET -2.923010 9.499495 0.000000
      CHANNELS 3 Yrotation Xrotation Zrotation
      JOINT RightShoulder
      {
       OFFSET -13.795216 0.000000 0.000000
       CHANNELS 3 Yrotation Xrotation Zrotation
       JOINT RightElbow
       {
        OFFSET -30.272209 0.000000 0.000000
        CHANNELS 3 Yrotation Xrotation Zrotation
        JOINT RightWrist
        {
         OFFSET -24.478199 0.000000 0.000000
         CHANNELS 3 Yrotation Xrotation Zrotation
         End Site
         {
          OFFSET -18.090752 0.000000 0.000000
         }
        }
       }
      }
     }
     JOINT LeftCollar
     {
      OFFSET 2.923010 9.499495 0.000000
      CHANNELS 3 Yrotation Xrotation Zrotation
      JOINT LeftShoulder
      {
       OFFSET 13.795216 0.000000 0.000000
       CHANNELS 3 Yrotation Xrotation Zrotation
       JOINT LeftElbow
       {
        OFFSET 30.272209 0.000000 0.000000
        CHANNELS 3 Yrotation Xrotation Zrotation
        JOINT LeftWrist
        {
         OFFSET 24.478199 0.000000 0.000000
         CHANNELS 3 Yrotation Xrotation Zrotation
         End Site
         {
          OFFSET 18.090752 0.000000 0.000000
         }
        }
       }
      }
     }
    }
   }
  }
 }
 JOINT RightHip
 {
  OFFSET -7.826875 0.019532 0.001973
  CHANNELS 3 Yrotation Xrotation Zrotation
  JOINT RightKnee
  {
   OFFSET 0.000000 -40.546152 -0.001885
   CHANNELS 3 Yrotation Xrotation Zrotation
   JOINT RightAnkle
   {
    OFFSET 0.000000 -39.417092 -0.003189
    CHANNELS 3 Yrotation Xrotation Zrotation
    JOINT RightToe
    {
     OFFSET 0.000000 -7.579396 17.243563
     CHANNELS 3 Yrotation Xrotation Zrotation
     End Site
     {
      OFFSET 0.000000 -1.500329 6.694466
     }
    }
   }
  }
 }
 JOINT LeftHip
 {
  OFFSET 7.826875 0.019532 0.001973
  CHANNELS 3 Yrotation Xrotation Zrotation
  JOINT LeftKnee
  {
   OFFSET 0.000000 -40.546152 -0.001885
   CHANNELS 3 Yrotation Xrotation Zrotation
   JOINT LeftAnkle
   {
    OFFSET 0.000000 -39.417092 -0.003189
    CHANNELS 3 Yrotation Xrotation Zrotation
    JOINT LeftToe
    {
     OFFSET 0.000000 -7.579396 17.243563
     CHANNELS 3 Yrotation Xrotation Zrotation
     End Site
     {
      OFFSET 0.000000 -1.500329 6.694466
     }
    }
   }
  }
 }
}
MOTION
Frames: 7
Frame Time: 0.008333
0.000000 87.345680 0.000000 0.000000 -5.767889 0.000000 0.000000 11.653876 0.000000 0.000000 -5.885988 0.000000 0.000000 -0.000000 0.000000 0.000000 -0.000000 0.000000 0.000000 12.528808 0.000000 0.000000 0.711711 0.000000 0.000000 -0.000000 0.000000 0.000000 -0.000000 0.000000 2.309063 -0.000000 0.000000 -2.309063 -0.000000 -0.000000 0.000000 -0.000000 0.000000 0.000000 0.000000 0.000000 -2.309063 0.000000 0.000000 2.309063 -0.000000 0.000000 0.000000 8.520374 0.000000 0.000000 1.905768 0.000000 -0.000000 -4.658254 0.000000 0.000000 -0.000000 0.000000 0.000000 8.520374 0.000000 0.000000 1.905768 0.000000 -0.000000 -4.658254 0.000000 0.000000 -0.000000 0.000000
3.242974 89.200919 7.763187 49.306123 -3.214111 -0.053563 -0.215987 1.318630 0.276856 -0.127889 0.752046 0.195544 -0.159464 0.940126 0.244173 -0.127889 0.752046 0.195544 0.439976 19.326565 -0.995045 0.692366 -5.303382 -1.153846 3.526922 -1.213077 -0.103697 2.457557 -4.617221 89.297705 0.666581 3.463635 -1.109676 -1.752182 -0.979714 0.144495 -0.901211 -0.575926 0.066530 -0.521035 -5.752333 -90.355324 1.382965 3.846174 1.445455 1.498645 -3.645123 0.328074 -5.405593 7.602631 -0.868409 -1.494309 1.644499 -0.990600 -3.202274 -5.292706 1.890314 0.001944 -0.075029 -0.000165 2.818887 6.542369 1.937702 2.064341 1.696885 -0.070514 -5.046307 -4.094118 -1.138604 0.008361 0.085420 -0.004724
3.242461 89.200996 7.759925 49.301829 -3.226035 -0.051990 -0.214253 1.327341 0.275228 -0.126342 0.757080 0.194258 -0.157530 0.946417 0.242567 -0.126342 0.757080 0.194258 0.428977 19.307400 -0.997574 0.681245 -5.324993 -1.153922 3.529349 -1.220502 -0.110816 2.442082 -4.624747 89.296888 0.679372 3.442178 -1.109810 -1.742886 -0.970479 0.142355 -0.932576 -0.587435 0.074442 -0.504096 -5.759907 -90.356415 1.383342 3.854617 1.446565 1.491585 -3.639753 0.325531 -5.403998 7.605732 -0.872121 -1.497616 1.657650 -0.992838 -3.199125 -5.297394 1.894368 0.001655 -0.074017 -0.000613 2.813590 6.540107 1.934103 2.065478 1.723564 -0.068494 -5.040524 -4.106473 -1.136534 0.008320 0.085243 -0.003677
3.241410 89.201067 7.755777 49.297370 -3.236766 -0.051515 -0.213073 1.335117 0.274437 -0.125295 0.761747 0.193546 -0.156220 0.952249 0.241677 -0.125295 0.761747 0.193546 0.419502 19.288295 -1.002580 0.672305 -5.346477 -1.156972 3.534324 -1.227978 -0.119035 2.428661 -4.631772 89.292217 0.690927 3.426024 -1.105289 -1.735433 -0.961868 0.139095 -0.961636 -0.596528 0.079917 -0.493336 -5.768964 -90.355890 1.383342 3.853670 1.448038 1.486167 -3.634048 0.324085 -5.404431 7.607983 -0.873775 -1.498262 1.668424 -0.995530 -3.200565 -5.299371 1.896847 0.000644 -0.073454 -0.000091 2.808791 6.535423 1.930854 2.068528 1.751479 -0.065611 -5.035994 -4.119954 -1.135440 0.008057 0.085485 -0.002158
3.240077 89.201142 7.750898 49.294992 -3.246872 -0.051792 -0.212978 1.342221 0.274028 -0.125069 0.766039 0.193283 -0.155936 0.957614 0.241348 -0.125069 0.766039 0.193283 0.412229 19.270343 -1.009514 0.666142 -5.366609 -1.162574 3.542050 -1.234846 -0.126633 2.420773 -4.637949 89.286126 0.702931 3.410974 -1.099714 -1.731520 -0.954595 0.134830 -0.985294 -0.601345 0.083721 -0.496885 -5.780942 -90.353741 1.380116 3.838317 1.447368 1.482599 -3.633465 0.325005 -5.408874 7.610783 -0.876141 -1.494736 1.676391 -0.997157 -3.200526 -5.299828 1.897401 -0.000509 -0.072876 0.001539 2.801111 6.529413 1.926788 2.074578 1.779548 -0.061297 -5.032066 -4.133311 -1.134034 0.007906 0.085657 -0.001351
3.238557 89.201223 7.745429 49.295221 -3.256063 -0.052724 -0.211385 1.348689 0.273495 -0.124337 0.769742 0.192970 -0.155020 0.962242 0.240956 -0.124337 0.769742 0.192970 0.403596 19.254721 -1.016194 0.658488 -5.384133 -1.167607 3.546015 -1.241154 -0.132707 2.414706 -4.641203 89.282351 0.715848 3.397365 -1.095366 -1.729279 -0.951632 0.132669 -1.008621 -0.603127 0.087900 -0.508384 -5.795007 -90.350362 1.374862 3.819322 1.443631 1.480460 -3.638603 0.327622 -5.417212 7.612713 -0.880286 -1.489703 1.684411 -0.998430 -3.190571 -5.300739 1.897889 -0.000782 -0.072392 0.003543 2.790467 6.519656 1.922368 2.082328 1.812236 -0.056826 -5.028091 -4.148258 -1.129609 0.008071 0.085586 -0.002468
3.236796 89.201307 7.739439 49.297092 -3.263244 -0.054286 -0.208536 1.354193 0.272607 -0.122972 0.772811 0.192357 -0.153313 0.966078 0.240192 -0.122972 0.772811 0.192357 0.393434 19.240694 -1.021723 0.648957 -5.399894 -1.171078 3.546013 -1.247992 -0.138434 2.409497 -4.640868 89.281638 0.730596 3.384214 -1.090121 -1.727231 -0.952173 0.131955 -1.032240 -0.605226 0.092210 -0.520537 -5.807489 -90.345427 1.368902 3.803642 1.438858 1.480508 -3.647092 0.331515 -5.427896 7.611001 -0.884144 -1.485658 1.695400 -1.000224 -3.175634 -5.302755 1.898299 -0.000079 -0.072377 0.005673 2.778649 6.505279 1.918991 2.089230 1.849203 -0.054770 -5.022686 -4.164562 -1.121513 0.008144 0.085472 -0.004698
